<?xml version="1.0"?>
<svg id="Layer_2" data-name="Layer 2" xmlns="http://www.w3.org/2000/svg" xmlns:xlink="http://www.w3.org/1999/xlink" viewBox="0 0 476.97 93.18">
  <defs>
    
    
    <linearGradient id="linear-gradient" x1="3.75" y1="45.16" x2="171.44" y2="45.16" gradientUnits="userSpaceOnUse">
      <stop offset=".08" stop-color="#775bef"></stop>
      <stop offset=".18" stop-color="#755aea" stop-opacity=".99"></stop>
      <stop offset=".3" stop-color="#7057de" stop-opacity=".98"></stop>
      <stop offset=".42" stop-color="#6953ca" stop-opacity=".95"></stop>
      <stop offset=".55" stop-color="#5f4dae" stop-opacity=".92"></stop>
      <stop offset=".68" stop-color="#51458a" stop-opacity=".87"></stop>
      <stop offset=".74" stop-color="#4b4279" stop-opacity=".85"></stop>
      <stop offset="1" stop-color="#5b499e"></stop>
    </linearGradient>
    <linearGradient id="linear-gradient-2" x1="155.88" y1="53.65" x2="167.81" y2="50.49" gradientUnits="userSpaceOnUse">
      <stop offset="0" stop-color="#4e4185"></stop>
      <stop offset=".85" stop-color="#463b79"></stop>
    </linearGradient>
    <linearGradient id="linear-gradient-3" x1="159.86" y1="57.73" x2="171.08" y2="72.68" gradientUnits="userSpaceOnUse">
      <stop offset="0" stop-color="#4b4082"></stop>
      <stop offset=".05" stop-color="#493e7f"></stop>
      <stop offset=".94" stop-color="#2b2148"></stop>
    </linearGradient>
  </defs>
  <g id="Layer_2-2" data-name="Layer 2">
    <g id="Matterphor_Va1">
      <g id="M">
        <path class="cls-6" fill="#8F7BFF" d="M132.53,33.95c3.25-.17,6.34,1.59,7.88,4.46l6.78,12.62c.35.66.55,1.41.57,2.16l.34,12.4c.02.58.29,1.12.75,1.48l8.93,6.87,13.65-4.98-.75-15.04-12.84-6.59c-.69-.35-1.28-.88-1.72-1.52l-10.91-15.98c-.8-1.18-1.23-2.55-1.24-3.98-.01-3.71-.08-12.12-.08-12.12,0-.53-.33-1.01-.83-1.22l-9.39-3.82c-.72-.29-1.52-.33-2.26-.12l-11.71,3.39c-.56.16-.93.7-.89,1.28,0,0,.77,9.82,1.07,13.44.1,1.25-.11,2.46-.62,3.5-.68,1.39-1.57,2.62-2.64,3.68l-5.68,5.59c-2.12,2.08-5.04,3.14-8.02,2.91-2.98-.24-5.69-1.76-7.45-4.17l-6.58-8.99c-2.45-3.35-3.28-7.63-2.28-11.73.11-.45.2-.92.25-1.4.69-5.76-3-11.22-8.6-12.71-3.19-.85-6.47-.36-9.25,1.37-2.78,1.73-4.66,4.46-5.3,7.67-.15.75-.23,1.52-.23,2.28,0,4.54-2.29,8.69-6.11,11.09l-16.54,10.43c-2.09,1.31-4.57,1.77-6.99,1.29-1.65-.33-3.33-.49-4.99-.49-5.02,0-9.89,1.51-14.09,4.36-5.62,3.82-9.4,9.6-10.63,16.29-2.45,13.28,6.31,26.38,19.52,29.19,6.65,1.42,13.44.14,19.11-3.6,5.68-3.74,9.53-9.47,10.85-16.13.45-2.28.59-4.59.41-6.88-.51-6.58,1.31-13.03,5.13-18.17l5-6.72c.5-.67,1.15-1.25,1.87-1.66,2.69-1.54,5.69-1.96,8.47-1.18,2.66.74,4.87,2.49,6.21,4.91l1.54,2.76c2.85,5.13,3.39,11.2,1.48,16.65l-2.28,10.03c-.76,3.36.4,6.82,3.04,9.04l7.33,6.16c3.25,2.73,7.9,2.88,11.32.36l10.02-7.38c2.79-2.06,4.17-5.46,3.6-8.88l-1.03-6.21c-.76-4.86.49-9.84,3.41-13.67,3.01-3.86,5.36-6.88,7.12-9.1,1.52-1.91,3.79-3.08,6.23-3.2Z"></path>
        
        <polygon class="cls-1" fill="#8F7BFF" points="170.68 53.92 157.52 55.7 150.06 51.01 167.23 52.26 170.68 53.92"></polygon>
        
        <path class="cls-2" fill="#8F7BFF" d="M171.99,69.36l-.65-15.44h-.66l-12.57,1.28c-.35.04-.62.34-.61.7l.04,17.85.25.19,14.2-4.57Z"></path>
        
        
      </g>
      <path id="M_Glow" class="cls-3" fill="#8F7BFF" opacity="0.3" d="M75.2,2.94c1.02,0,2.06.13,3.08.41,5.6,1.49,9.29,6.96,8.6,12.71-.06.48-.14.95-.25,1.4-1,4.11-.17,8.38,2.28,11.73l6.58,8.99c1.76,2.41,4.47,3.92,7.45,4.17.27.02.53.03.8.03,2.7,0,5.29-1.05,7.22-2.94l5.68-5.59c1.07-1.05,1.96-2.29,2.64-3.68.51-1.04.72-2.25.62-3.5-.3-3.62-1.07-13.44-1.07-13.44-.04-.58.33-1.12.89-1.28l11.71-3.39c.31-.09.63-.13.96-.13.45,0,.89.09,1.31.25l9.39,3.82c.18.08.33.2.46.34.01.01.03.02.04.04,0,0,.01.02.02.03.07.09.13.19.18.29.01.03.03.06.04.09.05.14.08.28.08.43,0,0,0,.03,0,.08,0,.06,0,.16,0,.32,0,.8.02,2.74.04,4.9v.02c.02,2.42.04,5.11.04,6.82,0,1.43.43,2.8,1.24,3.98l10.91,15.98c.44.64,1.03,1.16,1.72,1.52l12.84,6.59.75,15.04-13.65,4.98-.25-.19-8.68-6.67c-.46-.35-.74-.89-.75-1.48l-.34-12.4c-.02-.75-.22-1.49-.57-2.16l-6.78-12.62c-1.47-2.74-4.36-4.47-7.45-4.47-.14,0-.29,0-.43.01-2.44.12-4.72,1.28-6.23,3.2-1.76,2.22-4.11,5.24-7.12,9.1-2.92,3.83-4.17,8.81-3.41,13.67l1.03,6.21c.57,3.42-.81,6.82-3.6,8.88l-10.02,7.38c-1.62,1.2-3.53,1.79-5.43,1.79-2.1,0-4.19-.72-5.89-2.15l-7.33-6.16c-2.64-2.22-3.8-5.68-3.04-9.04l2.28-10.03c1.91-5.46,1.37-11.52-1.48-16.65l-1.54-2.76c-1.35-2.42-3.55-4.17-6.21-4.91-.91-.25-1.85-.38-2.79-.38-1.93,0-3.88.53-5.69,1.56-.73.42-1.38.99-1.87,1.66l-5,6.72c-3.82,5.14-5.64,11.59-5.13,18.17.18,2.29.04,4.6-.41,6.88-1.32,6.66-5.18,12.39-10.85,16.13-4.17,2.74-8.93,4.16-13.8,4.16-1.77,0-3.55-.19-5.32-.56-13.21-2.81-21.96-15.91-19.52-29.19,1.23-6.69,5.01-12.47,10.63-16.29,4.2-2.85,9.07-4.36,14.09-4.36,1.66,0,3.34.17,4.99.49.63.12,1.26.19,1.88.19,1.79,0,3.56-.5,5.1-1.48l16.54-10.42c3.82-2.41,6.1-6.55,6.11-11.09,0-.77.08-1.54.23-2.28.64-3.21,2.52-5.94,5.3-7.67,1.88-1.18,4-1.78,6.17-1.78M75.2,1.76c-2.39,0-4.74.68-6.79,1.95-3.06,1.91-5.13,4.9-5.83,8.44-.16.82-.25,1.66-.25,2.51,0,4.14-2.08,7.91-5.56,10.1l-16.54,10.42c-1.35.85-2.9,1.3-4.48,1.3-.55,0-1.11-.05-1.65-.16-1.73-.34-3.48-.52-5.22-.52-5.25,0-10.35,1.58-14.75,4.56-5.88,4-9.84,10.05-11.12,17.05-2.56,13.9,6.6,27.61,20.43,30.55,1.84.39,3.71.59,5.56.59,5.12,0,10.12-1.51,14.44-4.35,5.94-3.91,9.97-9.91,11.36-16.88.47-2.38.62-4.81.43-7.2-.49-6.3,1.25-12.47,4.9-17.38l5-6.72c.4-.54.93-1.01,1.52-1.34,1.61-.92,3.37-1.41,5.1-1.41.84,0,1.67.11,2.47.34,2.36.66,4.31,2.2,5.5,4.35l1.54,2.76c2.69,4.83,3.2,10.56,1.39,15.69l-.02.06v.07s-2.29,10.03-2.29,10.03c-.86,3.79.45,7.7,3.43,10.2l7.33,6.16c1.86,1.57,4.22,2.43,6.64,2.43,2.21,0,4.33-.7,6.13-2.02l10.02-7.38c3.15-2.32,4.71-6.16,4.07-10.02l-1.03-6.21c-.71-4.53.46-9.19,3.19-12.77,3.11-4,5.39-6.91,7.11-9.08,1.31-1.65,3.27-2.65,5.37-2.75.13,0,.25-.01.38-.01,2.64,0,5.16,1.51,6.42,3.85l6.78,12.62c.27.5.42,1.06.43,1.63l.34,12.4c.03.94.47,1.8,1.21,2.38l8.68,6.67.25.19.51.39.61-.22,13.65-4.98.81-.3-.04-.87-.75-15.04-.03-.68-.6-.31-12.84-6.59c-.51-.26-.96-.66-1.29-1.14l-10.91-15.98c-.67-.98-1.03-2.13-1.03-3.32,0-1.71-.02-4.4-.04-6.82-.02-2.18-.03-4.12-.04-4.92v-.23s0-.09,0-.09v-.08c0-.27-.05-.54-.15-.81-.03-.07-.06-.14-.09-.21-.06-.13-.14-.27-.23-.4l-.03-.05-.11-.13s-.08-.09-.13-.12c-.25-.25-.52-.44-.82-.56l-9.39-3.82c-.56-.23-1.15-.34-1.75-.34-.44,0-.87.06-1.28.18l-11.71,3.39c-1.09.32-1.82,1.37-1.73,2.5v.11c.09,1.08.79,9.94,1.07,13.33.09,1.04-.09,2.03-.5,2.88-.62,1.26-1.43,2.39-2.41,3.35l-5.68,5.59c-1.71,1.68-3.98,2.61-6.4,2.61-.24,0-.47,0-.71-.03-2.63-.21-5.03-1.56-6.59-3.69l-6.58-8.99c-2.25-3.07-3.01-6.99-2.08-10.76.12-.5.22-1.02.28-1.54.76-6.33-3.3-12.35-9.46-13.99-1.11-.3-2.25-.45-3.38-.45h0Z"></path>
      <g id="Font">
        <g>
          <polygon class="cls-5" fill="#F2F0FA" points="109.93 18.63 121.96 56.79 132.87 18.63 149.23 18.63 149.23 72.24 138.32 72.24 138.32 33.17 126.46 72.2 116.79 72.27 104.7 33.17 104.7 72.24 93.8 72.24 93.8 18.63 109.93 18.63"></polygon>
          <path class="cls-5" fill="#F2F0FA" d="M368.66,18.63v20.9l3.22-3.37c4.58-4.77,20.86-2.83,20.86,8.59v27.49h-10.45v-25.21c0-1.59-1.42-3.22-1.84-3.61-2.37-2.19-7.13-1.87-9.36.36-.67.67-2.43,3.02-2.43,5.07v23.4h-10.45V19.31s.63-.68.68-.68h9.77Z"></path>
          <path class="cls-5" fill="#F2F0FA" d="M464.98,34.08v9.54h-6.59c-2.63,0-6.59,3.56-6.59,8.86v19.76h-10.45v-37.03s.63-.68.68-.68h8.86v7.27c.9-.59,1.26-1.85,1.82-2.95,2.1-4.12,7.36-5.85,12.26-4.77Z"></path>
          <path class="cls-5" fill="#F2F0FA" d="M311.87,34.09v9.54h-6.59c-2.63,0-6.59,3.56-6.59,8.86v19.76h-10.45v-37.03s.63-.68.68-.68h8.86v7.27c.9-.59,1.26-1.85,1.82-2.95,2.1-4.12,7.36-5.85,12.26-4.77Z"></path>
          <path class="cls-5" fill="#F2F0FA" d="M340.97,34.29c-6.27-1.69-12.02.14-15.92,5.24-.42-1.21,1.23-4.55-.23-5-2.01-.61-6.93.45-9.31,0v52.25h10.45v-18.63s.7,1.04,1.34,1.62c1.44,1.28,4.38,2.97,6.27,3.27,23.29,3.68,25.61-33.84,7.41-38.75ZM335.22,65.4c-12.41,1.3-12.2-21.79-3.02-23.49,13.62-2.52,13.37,22.41,3.02,23.49Z"></path>
          <path class="cls-5" fill="#F2F0FA" d="M190.66,64.87c-1.48-2.03.12-18.42-.75-22.64-.94-4.58-5.92-7.22-10.14-8.03-9.17-1.78-22.54.63-22.83,12.15h10c.24,0,.16-2.93,1.93-4.25,2.78-2.06,10.55-1.96,11.21,2.23.97,6.07-6.17,5-10.13,5.72-5.5.99-11.85,1.83-13.79,8.01-4.8,15.28,16.53,19.9,24.86,10.1,1.08,5.98,8.23,4.72,12.73,4.09v-6.59c-.51-1.01-2.42.14-3.09-.78ZM180.12,60.66c0,.77-1.37,2.61-1.62,2.93-3.01,3.94-12.95,4.03-12.77-2.4.19-6.75,10.37-4.36,14.38-7.11v6.59Z"></path>
          <path class="cls-5" fill="#F2F0FA" d="M258.36,34.4c-17.92,4.68-18.22,33.05-.44,37.96,9.89,2.73,21.91-.79,23.97-11.93h-9.31c-.3,0-1.6,3.13-4.01,4.17-6.92,3-13.25-1.38-13.49-8.72h27.71c.99-14.63-9.56-25.38-24.44-21.49ZM255.08,49.07c1.77-10.35,15.58-10.51,17.26,0h-17.26Z"></path>
          <path class="cls-5" fill="#F2F0FA" d="M414.91,33.76c-24.22,2.34-22.98,42.32,5.26,39.34,23-2.43,21.36-41.9-5.26-39.34ZM417.46,65.38c-12.22.21-11.83-21.75-2.57-23.47,4.04-.75,7.75.46,9.61,4.27,3.02,6.2,1.79,19.05-7.03,19.2Z"></path>
          <path class="cls-5" fill="#F2F0FA" d="M210.56,62.02v-20.22h2.89l4.2-7.27h-7.08v-11.36h-10.45v11.36s-5.91-.43-5.91.68v6.59h5.91c.37,6.73-.51,14,0,20.67.84,10.86,8.08,10.83,17.26,9.77v-7.5c0-.32-1.21-.53-1.52-.45-2.13.58-5.3-.05-5.3-2.27Z"></path>
          <path class="cls-5" fill="#F2F0FA" d="M235.2,62.02v-20.22h6.71v-7.27h-6.71v-11.36h-10.45v11.36h-2.77s-4.2,7.27-4.2,7.27h6.97c.37,6.73-.51,14,0,20.67.84,10.86,8.08,10.83,17.26,9.77v-7.5c0-.32-1.05-.53-1.36-.45-2.13.58-5.46-.05-5.46-2.27Z"></path>
        </g>
        <path class="cls-4" fill="#8F7BFF" d="M474.82,71.17c-7.72,7.24-17.62-6.04-8.79-11.29,7.75-4.61,14.57,5.87,8.79,11.29Z"></path>
      </g>
    </g>
  </g>
</svg>